<svg width="120" height="120" viewBox="0 0 120 120" fill="none" xmlns="http://www.w3.org/2000/svg">
<path d="M10.6875 0.46875C9.21094 1.05469 7.66406 2.55469 7.03125 4.03125C6.58594 5.08594 6.51562 5.88281 6.30469 11.7891C6.02344 20.8594 5.74219 25.7344 4.875 36.9141C4.21875 45.2812 4.125 47.625 4.125 54.9609C4.125 63.6562 4.26562 65.7656 5.41406 75.1172C6 79.8516 6.49219 81.2344 8.22656 82.8516C8.85938 83.4375 9.60938 84 9.91406 84.1172C10.4531 84.3281 10.5 84.4688 10.5938 86.7656C10.6875 88.7578 10.8047 89.4375 11.3438 90.5859C12.1172 92.2734 13.3125 93.5859 14.8359 94.3594C15.4453 94.6641 15.9375 94.9688 15.9375 95.0391C15.9375 95.1094 15.6328 95.6484 15.2578 96.2578C13.4297 99.2109 12.7266 103.5 13.4531 107.109C15.375 116.531 24.9141 122.156 33.9844 119.156C40.0781 117.141 44.7656 111 44.7656 104.977V103.43L48 103.312C51.6328 103.172 52.6172 102.844 53.8594 101.367C54.75 100.266 55.0781 99.1172 55.0781 97.0547V95.3906H61.2891H67.5V97.0781C67.5 99.2578 67.8047 100.359 68.7188 101.391C70.0547 102.914 70.9219 103.195 74.9062 103.312L78.4453 103.43L78.5625 105.328C78.9141 110.766 82.2891 115.805 87.3047 118.266C91.9688 120.562 96.7031 120.562 101.367 118.266C105 116.461 108.047 113.109 109.219 109.57C109.734 108 109.734 108 109.289 107.367C108.117 105.82 106.758 106.289 105.844 108.562C103.758 113.719 99 116.766 93.6328 116.414C90.375 116.18 87.7969 115.008 85.5469 112.711C80.7656 107.859 80.8594 100.242 85.7578 95.3672C87.375 93.75 89.4141 92.5781 91.4062 92.1328C92.9531 91.7812 96.0234 91.8281 97.6172 92.2266C101.273 93.1875 104.508 96.1406 105.938 99.8438C106.219 100.547 106.594 101.273 106.805 101.414C107.695 102.094 109.266 101.555 109.547 100.453C109.734 99.7031 109.008 97.7812 107.836 95.8359L106.898 94.3359L107.531 93.8672C108.68 93.0234 109.5 92.0156 110.109 90.7031C110.625 89.6016 110.742 89.0156 110.812 86.8359L110.906 84.2578L112.031 83.625C113.32 82.8984 114.609 81.4219 115.359 79.7812C115.852 78.7266 115.898 78.3281 115.898 74.2969C115.875 69.2812 115.664 68.1797 114.023 64.7578C112.125 60.8672 109.242 57.8438 105.445 55.8047C103.031 54.5156 101.062 53.9766 96.4453 53.2969C90.7031 52.4766 86.8594 51.4922 82.0078 49.6641C80.3438 49.0312 80.2266 48.9375 80.2266 48.2812C80.2266 46.8281 78.7734 46.1953 77.3672 47.0156C76.7578 47.3672 76.6641 47.3672 75.0703 46.5469C73.4531 45.75 73.4062 45.7031 73.4297 44.8594C73.4531 44.2031 73.3125 43.875 72.7969 43.4531C72.0703 42.7969 71.5312 42.75 70.875 43.2422C70.2188 43.7344 70.1016 43.6875 68.625 42.5391L67.2891 41.5078L67.6406 40.8047C67.9453 40.1953 67.9453 39.9844 67.6875 39.4453C67.5234 39.0938 67.0781 38.6484 66.7266 38.4844C66.1875 38.2266 65.9766 38.2266 65.3438 38.5547L64.5938 38.9062L63.4688 37.8047C62.2734 36.6094 62.1328 36.3281 62.6953 35.8594C63.2109 35.4375 63.1406 34.0781 62.5781 33.5156C62.0859 33.0234 61.0547 32.9062 60.4688 33.2812C60.1875 33.4453 59.9531 33.2344 59.3672 32.2969C58.5 30.9375 58.4297 30.5859 58.9453 30.375C59.1328 30.3047 59.4141 29.9531 59.5547 29.6016C60.0469 28.3125 58.7812 26.9531 57.3984 27.3047C56.8828 27.4219 56.7891 27.3047 56.2734 25.875L55.7109 24.3281L56.4609 23.7422C57.7969 22.6875 57.1875 20.7891 55.4297 20.5781C54.75 20.5078 54.7266 20.4609 54.4453 18.75C54.2812 17.7891 54.0938 14.25 54.0469 10.9219C53.9297 4.96875 53.9062 4.82812 53.3203 3.60938C52.9688 2.90625 52.2656 1.99219 51.7266 1.52344C49.9922 0.046875 49.6406 0 37.9453 0C28.0547 0 27.4453 0.0234375 26.9297 0.445312C26.1797 1.05469 26.1797 2.46094 26.9297 3.07031C27.4219 3.46875 27.9375 3.51562 32.7422 3.51562H38.0391L37.875 4.45312C37.1719 8.8125 37.1719 14.8125 37.875 19.6875C40.8047 40.3594 55.0312 57.5391 74.6484 64.125C76.4531 64.7344 77.9531 65.25 77.9531 65.25C77.9766 65.2734 77.8125 66.2578 77.5781 67.4766C77.3438 68.6953 77.0625 70.5703 76.9922 71.6484L76.8281 73.6172L56.9766 73.5469C39.0234 73.4766 37.0547 73.4297 36.1641 73.0781C35.625 72.8672 33.7031 71.6719 31.8984 70.4531C30.0938 69.2109 28.3359 68.1562 28.0078 68.0625C27.4453 67.9219 27.4219 67.8516 27.4219 66.1172C27.3984 58.3359 22.6172 51.0234 15.3281 47.6719C13.4766 46.8047 10.2422 45.9375 8.85938 45.9375C7.96875 45.9375 7.96875 45.9375 7.96875 44.9297C7.96875 44.3906 8.17969 40.9453 8.4375 37.2656C9.07031 27.7969 9.58594 18.4219 9.82031 11.5312C10.0547 5.03906 10.1016 4.875 11.5547 3.98438C12.2109 3.5625 12.75 3.51562 16.3125 3.51562C20.0156 3.51562 20.3672 3.46875 20.9531 3.02344C21.7969 2.36719 21.7969 1.14844 20.9531 0.492188C20.3672 0.0234375 20.0391 0 16.0781 0C12.4688 0.0234375 11.6719 0.09375 10.6875 0.46875ZM48.8203 3.84375C50.3203 4.45312 50.4844 5.03906 50.5781 9.53906L50.6719 13.5938H45.7031H40.7109L40.875 10.5938C40.9688 8.95312 41.1562 6.70312 41.2969 5.55469L41.5547 3.51562H44.8125C47.0156 3.51562 48.3047 3.60938 48.8203 3.84375ZM50.7188 17.625C51.0234 19.2656 51.2578 21 51.1875 21.1172C51.1406 21.2109 50.3438 21.3516 49.4062 21.4453C47.9766 21.5859 47.625 21.7266 47.0391 22.2891C46.5 22.8516 46.3828 23.1094 46.5234 23.625C46.8516 24.9141 47.2969 25.1484 49.1016 24.9844C50.0156 24.9141 51.0703 24.7969 51.4453 24.7031C52.1484 24.5625 52.1719 24.5859 52.7109 26.2969C53.0156 27.2344 53.3203 28.125 53.3672 28.2656C53.4375 28.4297 52.7344 28.7812 51.6328 29.1562C49.7812 29.7656 49.2188 30.2344 49.2188 31.1953C49.2188 31.9453 49.6172 32.5078 50.3438 32.7656C50.8594 32.9531 51.3984 32.8828 52.7578 32.4375C53.7188 32.1328 54.6094 31.875 54.75 31.875C54.9844 31.875 57.0469 35.1562 56.9062 35.2969C56.8594 35.3203 56.2031 35.7188 55.4062 36.1875C53.6484 37.1953 53.3672 37.5469 53.3906 38.5078C53.4141 39.375 54.1406 40.0781 55.0078 40.0781C55.3359 40.0781 56.3906 39.6562 57.3516 39.1172L59.0859 38.1562L59.9531 39.1641C60.4219 39.7266 61.0547 40.4531 61.3359 40.7812L61.8516 41.3672L60.3516 42.7734C58.6172 44.3906 58.4297 45.0938 59.4141 46.0547C60.4219 47.0859 61.1719 46.8047 63.5391 44.5781L64.4062 43.7812L66.3047 45.2344C67.3594 46.0312 68.2031 46.7109 68.2031 46.7812C68.2031 46.8281 67.6641 47.6719 67.0078 48.6797C66.1172 50.0625 65.8594 50.625 65.9766 51.0938C66.2344 52.1719 67.4297 52.7812 68.5078 52.3594C68.7188 52.2891 69.4219 51.3984 70.0781 50.3672L71.2969 48.5156L73.3359 49.6172C74.4375 50.2031 75.3984 50.7422 75.4453 50.7891C75.5156 50.8359 75.2109 51.6797 74.8125 52.6875C74.3906 53.6719 74.0625 54.7734 74.0625 55.125C74.0625 56.4844 75.7969 57.2109 76.8047 56.2969C77.0625 56.0859 77.625 55.0781 78.0469 54.0703C78.4688 53.0625 78.9375 52.2891 79.0781 52.3359C79.2188 52.3828 80.2969 52.7812 81.4453 53.2266C82.6172 53.6484 83.6016 54.0234 83.625 54.0469C83.6719 54.0703 83.2734 54.6562 82.7578 55.3359C81.6562 56.6953 80.2266 59.1094 79.5703 60.7031C79.3359 61.2891 79.1016 61.7812 79.0781 61.8281C79.0547 61.8516 77.5781 61.4062 75.7969 60.8203C57.6094 54.8438 44.0156 38.5547 41.4141 19.6172C41.2266 18.375 41.1328 17.2969 41.2031 17.2266C41.2734 17.1562 43.4062 17.1094 45.9609 17.1094C50.6016 17.1094 50.625 17.1094 50.7188 17.625ZM12.6328 50.3672C17.25 52.0547 20.8359 55.5234 22.6641 60C23.3906 61.8047 23.9062 64.1953 23.9062 65.7891V67.0312H15.9609H8.01562L7.875 66.375C7.78125 66.0234 7.64062 62.0625 7.57031 57.5625L7.42969 49.3828L9.04688 49.5234C9.96094 49.5938 11.5312 49.9688 12.6328 50.3672ZM90.7031 55.875C92.1797 56.2031 94.6641 56.625 96.2109 56.8359C100.008 57.3516 101.484 57.75 103.711 58.8984C106.336 60.2344 109.477 63.375 110.672 65.8594C111.961 68.5547 111.961 68.4609 110.695 69.7734C109.242 71.25 107.625 72.3516 105.984 72.9844C104.695 73.4531 104.25 73.4766 92.4844 73.5469L80.3438 73.6172L80.4844 71.7891C80.9062 67.2656 82.1953 62.8594 84.0234 59.7188C85.0781 57.8906 87.2578 55.3125 87.75 55.3125C87.8906 55.3125 89.2266 55.5703 90.7031 55.875ZM26.5547 71.2969C27.3047 71.6484 29.0625 72.7266 30.4688 73.7109C33.6094 75.8906 35.0391 76.5469 37.1484 76.875C39.3281 77.1797 102.422 77.1797 104.578 76.875C106.781 76.5469 108.539 75.8438 110.648 74.3906L112.5 73.1484V75.2109C112.5 78.3281 111.75 79.9219 109.828 80.8359C108.844 81.3281 108.75 81.3281 60.4219 81.3281H12.0234L11.2266 80.7891C9.79688 79.8281 9.51562 79.125 8.95312 75.2109C8.67188 73.2188 8.4375 71.3672 8.4375 71.0625V70.5L16.8281 70.5938L25.1953 70.6641L26.5547 71.2969ZM107.344 86.4844C107.344 88.8984 106.547 90.4688 104.93 91.3359C104.297 91.6406 104.203 91.6172 103.172 90.9609C100.312 89.1328 97.6875 88.3594 94.3359 88.3594C90.8906 88.3594 87.9844 89.25 85.1484 91.1953L84.1641 91.875H61.6172H39.0703L38.2969 91.2891C37.1016 90.375 34.4766 89.1562 32.7891 88.7344C30.5859 88.1953 27.0234 88.2422 24.8672 88.8281C22.9688 89.3672 21.7969 89.9062 19.9688 91.1016C18.9141 91.8047 18.6094 91.8984 17.8828 91.7578C16.0781 91.4297 14.7656 90.2578 14.2969 88.6406C14.0391 87.6797 13.9688 85.2422 14.2266 85.0078C14.2969 84.9141 35.2969 84.8438 60.8672 84.8438H107.344V86.4844ZM32.6016 92.3438C36.3516 93.4922 39.6328 96.7734 40.7812 100.5C41.3438 102.281 41.4141 105.445 40.9219 107.227C40.0781 110.414 37.6172 113.531 34.7812 115.031C26.9531 119.109 17.4609 113.906 16.7109 105.117C16.2188 99.3047 20.1094 93.7969 25.7812 92.2031C27.4688 91.7344 30.8906 91.8047 32.6016 92.3438ZM51.5625 97.0078C51.5625 98.25 51.4688 98.7422 51.1172 99.1641C50.6953 99.7031 50.5547 99.7266 47.4375 99.7266H44.2266L43.8984 98.7891C43.7344 98.2734 43.3125 97.3594 43.0078 96.75C42.6797 96.1406 42.4219 95.5781 42.4219 95.5078C42.4219 95.4375 44.4844 95.3906 46.9922 95.3906H51.5625V97.0078ZM80.2969 96.8438C79.875 97.6641 79.4062 98.6719 79.2656 99.0938L78.9844 99.8906L75.4453 99.7969C72.0703 99.7266 71.8828 99.7031 71.4609 99.1641C71.1094 98.7422 71.0156 98.25 71.0156 97.0078V95.3906H76.0312H81.0703L80.2969 96.8438Z" fill="#FEBF1A"/>
<path d="M27.5859 97.5C23.4141 98.5547 21.0937 103.055 22.8281 106.758C23.625 108.469 24.4453 109.336 26.0625 110.133C32.625 113.414 38.8828 105.094 34.0078 99.5391C32.5781 97.9219 29.6719 96.9844 27.5859 97.5ZM30.375 101.227C31.5937 101.789 32.4844 103.383 32.2266 104.578C31.7344 106.875 29.4609 108 27.4453 106.922C25.0078 105.609 25.3828 101.812 28.0312 101.016C29.0391 100.734 29.3203 100.758 30.375 101.227Z" fill="#FEBF1A"/>
<path d="M92.9297 97.4765C90.7969 98.0156 89.0859 99.4453 88.1719 101.437C87.375 103.172 87.4922 105.797 88.4297 107.414C91.2187 112.148 97.9687 111.961 100.406 107.062C102.07 103.734 100.406 99.3047 96.9609 97.8515C95.9297 97.4297 93.8672 97.2187 92.9297 97.4765ZM95.2031 101.016C98.7187 102 97.9922 107.344 94.3359 107.344C92.4844 107.344 91.1719 105.961 91.1719 104.016C91.1719 102.398 92.3906 101.109 94.2187 100.805C94.2891 100.781 94.7344 100.898 95.2031 101.016Z" fill="#FEBF1A"/>
</svg>
