<svg width="683" height="683" viewBox="0 0 683 683" fill="none" xmlns="http://www.w3.org/2000/svg">
<g clip-path="url(#clip0_357_1245)">
<path d="M535.733 2.13334C509.6 6.80001 486.933 19.4667 467.2 40.2667C454.4 54 445.467 69.2 439.733 87.3333C437.467 94.6667 435.467 100.8 435.2 101.067C435.067 101.333 433.733 100.933 432.4 100.267C430.8 99.3333 429.333 96.2667 428.4 91.6C422.667 64.1333 397.467 40 368 33.8667C339.333 27.8667 307.333 40.6667 290.4 65.2L286.267 71.0667L283.467 67.2C272.933 52.4 257.333 40.8 240.667 35.7333C223.333 30.2667 193.867 32.9333 185.2 40.8C181.733 43.8667 181.867 51.2 185.467 54.8C188.667 58 191.2 57.8667 207.733 53.8667C216.267 51.8667 218.8 51.7333 226.933 53.0667C232 54 239.6 56.2667 243.733 58.2667C252.533 62.4 265.067 74.2667 269.2 82.4C276.4 96.4 276 82.8 276 358.133C276 604.133 275.867 613.333 273.467 621.2C270 632.133 265.467 639.6 257.467 647.2C234.533 668.533 198.133 667.2 177.2 644.267C170.267 636.667 164.8 626.8 163.2 618.933C162.4 615.2 162.667 614.667 166.133 613.867C177.2 611.467 181.333 610 188.667 606.4C193.067 604.133 199.867 600 203.6 597.067L210.667 591.733L216.133 596.667C223.6 603.333 231.2 606.667 239.6 606.667C245.467 606.667 246.933 606.133 249.2 603.2C250.8 601.2 252 598.667 252 597.333C252 593.2 246.8 588.133 241.6 587.2C230.933 585.333 227.6 582.133 224.8 570.933C223.067 563.6 217.867 559.2 212.8 560.533C210.933 560.933 206.933 564.533 203.733 568.8C196.533 578 184.933 586.933 174.933 590.8C163.333 595.333 143.467 595.867 132 592C111.333 585.067 95.7333 569.067 90 548.933C88.8 544.667 88 540.933 88.2667 540.8C88.4 540.667 91.8667 539.733 95.8667 538.933C99.7333 538 106.933 535.467 111.6 533.2C116.4 530.933 120.4 529.333 120.533 529.6C120.667 529.733 122.4 532.8 124.4 536.133C132.533 550.4 148.8 560.8 165.733 562.267C172.533 562.933 173.867 562.667 176.667 560C183.867 553.2 178.8 542.667 168.133 542.667C162.267 542.667 152.667 538.4 147.467 533.6C142 528.533 137.333 517.867 137.333 510.533C137.333 492.667 149.467 479.467 168.4 476.667C175.733 475.733 180 472.267 180 467.467C180 458.8 174.8 455.867 162.267 457.6C151.6 459.067 141.6 464 133.467 471.867C126 479.067 121.867 486.533 118.667 498C116.8 504.533 115.467 506.8 110.933 510.267C98.8 519.6 79.4667 523.467 64.4 519.467C52.4 516.4 45.8667 512.667 37.0667 503.867C19.3333 486.267 15.3333 460.933 26.5333 438.133C28.6667 433.6 32.5333 428 35.0667 425.467L39.7333 421.067L45.6 424.533C54.4 429.6 66.1333 433.333 76.8 434.267C87.6 435.067 91.0667 433.867 93.0667 428.4C95.8667 420.267 90.5333 415.467 77.3333 414.133C59.6 412.4 41.2 399.6 33.2 383.333C22 360.4 26 335.067 43.8667 317.2C53.4667 307.733 63.4667 302.933 78.2667 300.533C84.8 299.6 90.1333 298.8 90.4 298.667C91.6 298.533 94.2667 289.867 93.6 287.733C92.6667 284 86.8 280 82.1333 280C74 280.133 59.2 284 49.8667 288.667C44.5333 291.2 39.7333 293.333 38.9333 293.333C37.3333 293.333 29.3333 282.667 26 276C11.8667 248.267 24 213.333 52.6667 199.867C72.6667 190.4 91.4667 192 110.8 204.8C115.733 208 120.933 210.667 122.533 210.667C126.667 210.667 132 204.8 132 200.533C132 193.067 112 179.6 95.3333 175.867C88 174.267 87.8667 174.133 88.6667 170.133C91.8667 154.667 106.933 134.667 120.8 127.6C130.4 122.8 141.333 119.733 141.867 121.733C146.667 138 149.467 144.667 154.933 152.8C166.133 169.6 177.333 176 184 169.333C188.8 164.533 187.467 159.467 178.8 150.133C174.4 145.467 169.333 138.667 167.6 135.067C160.667 121.333 159.733 103.6 165.333 89.4667C168.667 80.8 168.667 75.3333 165.333 72C162 68.6667 155.467 68.5333 152.133 71.8667C149.2 74.8 144 87.8667 143.067 94.9333C142.4 99.7333 142.267 99.7333 132.933 101.867C117.2 105.467 104.8 112.4 92.5333 124.667C80.4 136.8 73.4667 148.933 69.7333 164.8L67.6 174.267L59.8667 175.867C48.6667 178.133 34.2667 185.867 24.9333 194.667C-5.06667 222.8 -8.13333 268.533 18 300.533L24.2667 308.267L21.6 311.867C17.6 317.333 11.3333 330.533 9.2 338C8.13333 342 7.33333 350.267 7.46667 358.667C7.6 375.067 10.4 384.933 18.8 398.4L24 406.8L17.0667 415.733C-1.86667 440.533 -5.2 470.267 8.13333 498.133C13.7333 509.6 29.3333 526 40 531.333C48.9333 535.867 60.8 540 64.6667 540C67.2 540 67.8667 541.067 69.2 548.267C70.1333 552.933 73.3333 561.733 76.2667 568C80.6667 577.067 83.8667 581.467 92.5333 590.133C104.8 602.4 116.933 609.2 133.067 612.933C141.333 614.933 142.667 615.6 142.667 618.133C142.667 621.867 146.8 633.733 151.2 642.4C153.067 646.133 158.667 653.6 163.467 658.667C192.933 689.867 242.4 690.4 273.2 659.867C276.4 656.667 280.533 651.733 282.4 648.933L285.867 643.733L288.533 647.6C294.533 656.4 310.267 670.133 319.2 674.4C343.2 686.133 372.933 684.667 394.4 670.8C409.733 661.067 423.2 642.933 427.333 627.067C428.533 622 429.867 617.333 430 616.533C430.267 615.733 434.667 614 439.867 612.933C470.4 606 494.8 581.6 502.4 550.4L504.8 540.8L512.133 539.2C521.6 537.067 532.4 532.133 539.733 526.8C544.667 523.2 545.333 522 545.333 517.467C545.333 507.467 536.667 505.067 525.867 512C515.6 518.533 507.467 520.667 494 520.533C480.267 520.4 470.267 517.333 461.067 510.267C456.4 506.533 455.2 504.667 452.8 496C446.667 474.667 431.333 460.933 410 457.6C397.867 455.6 392 458.8 392 466.933C392 472.267 396.4 475.733 404.667 476.667C425.733 479.333 439.067 499.067 433.333 519.333C430 531.333 415.6 542.667 403.6 542.667C393.467 542.667 388.667 552.8 395.467 559.6C398.667 562.8 399.467 562.933 407.6 562.267C412.4 561.733 419.467 560 423.467 558.133C432.267 554.133 443.867 543.333 448.133 535.333C449.867 532 451.733 529.333 452.133 529.333C452.667 529.333 456.533 531.067 460.8 533.2C465.2 535.333 472.133 537.867 476.4 538.8C480.533 539.867 484 541.333 484 542.133C484 544.4 479.2 557.733 476.667 562.8C475.333 565.2 470.933 570.8 466.933 575.067C454 588.533 439.6 594.667 420.533 594.667C400 594.667 386.933 588.4 370.4 570.667C364.267 564.133 359.333 560 357.733 560C352.8 560 348.4 564.8 347.333 571.333C346.133 580 341.067 585.2 332.667 586.8C329.067 587.467 324.933 589.2 323.467 590.667C320.267 593.867 320.133 600.533 323.333 604C328.8 610 347.733 605.6 356.533 596.133C358.8 593.867 360.8 592 361.333 592C361.733 592 365.333 594.4 369.333 597.467C380.267 605.733 391.6 610.8 405.867 614C409.333 614.8 409.6 615.067 408.667 619.733C407.2 627.733 400.133 639.467 392.533 646.667C370.667 667.333 337.467 667.6 315.067 647.467C311.6 644.267 306.8 638.4 304.4 634.533C295.467 619.6 296 637.733 296 358.533C296 193.333 296.533 103.2 297.333 98.5333C302.933 69.0667 333.333 47.8667 362.267 53.2C384.8 57.3333 401.467 71.8667 408 93.0667C414.4 113.733 409.067 134.4 393.067 150.667C387.333 156.533 385.333 159.6 385.333 162.4C385.333 167.867 389.733 172 395.6 172C405.467 172 423.467 148.267 428.267 128.533C430.4 120.4 432.533 118.933 433.067 125.333C434.4 140.8 437.867 157.467 442 168.533L446.8 181.333L440 210.267C430.133 253.067 429.6 252.533 472.4 242.667L501.333 235.867L514.133 240.667C521.2 243.333 531.867 246.133 537.733 246.933C552.4 248.8 552 248.667 552 253.733C552 264.8 546.133 279.2 537.6 289.333L533.6 294L525.2 289.733C514.4 284.267 505.867 281.733 494.8 280.533C487.067 279.867 485.6 280.133 482.4 282.667C474.667 288.667 479.2 300 489.333 300C492 300 497.6 300.933 502 302C529.2 309.2 546.933 333.6 544.933 361.6C543.067 388.667 520.8 411.733 494.133 414.267C482.933 415.333 478.667 418.267 478.667 424.8C478.667 431.6 482.4 434.667 491.067 434.667C500.667 434.667 512.267 431.6 523.2 426L532.533 421.333L537.067 425.6C539.467 428 543.733 434.533 546.4 440C551.2 449.6 551.333 450.267 551.467 466C551.733 486.667 551.333 485.2 556.267 487.2C561.733 489.6 567.067 487.733 569.333 482.933C572.267 477.067 572.667 456.533 570.133 446.667C567.067 434.533 561.467 423.333 554.267 414.4L548 406.933L552.667 399.733C569.2 374.8 569.2 340 552.667 315.2L548 308L554 300.533C565.067 287.067 571.867 269.333 572 254.533V248.267L578.4 247.333C594.133 244.933 621.733 233.467 629.867 226C635.867 220.533 633.467 210.667 625.867 208.8C623.333 208.133 620.267 209.2 613.333 213.2C580.933 231.867 546.933 233.867 514.533 219.333L504.4 214.667L481.333 220C468.667 222.933 458 225.2 457.733 224.933C457.467 224.667 459.733 214 462.667 201.333L468 178.267L463.333 168.133C456.667 153.2 454.267 141.733 454.267 124.667C454.267 94.5333 464.933 69.3333 486.533 48.9333C537.733 0.666672 620.267 15.2 651.333 78C659.6 94.9333 661.733 104.133 661.867 123.333C662 143.067 659.2 156 651.067 171.733C647.867 178 645.333 184.133 645.333 185.6C645.333 189.067 651.2 194.667 654.933 194.667C660.533 194.667 664.267 190.533 670.133 178C690.933 134.267 685.067 84.2667 654.933 46.5333C626.8 11.3333 580.267 -6 535.733 2.13334Z" fill="#FF99B4"/>
<path d="M547.2 44.5334C527.733 49.3334 512.8 66.2667 511.067 85.4667C510.267 94.1334 511.867 98.1334 516.933 100.133C524 102.8 530.667 97.0667 530.667 88.2667C530.8 82.5334 535.2 74.1334 540.667 69.6C552.267 60.1334 568.133 61.3334 578.4 72.5334C586.8 81.7334 587.867 96 580.8 106.8C576.667 112.933 566.267 118.667 558.933 118.667C556 118.667 553.467 119.733 551.333 122C548 125.2 548 125.6 548 147.2C548 160.8 548.533 170.533 549.467 172.533C552.533 179.067 563.333 179.6 566.533 173.467C567.333 172 568 163.467 568 154.4V138L574.4 135.733C587.867 130.933 599.067 119.2 603.467 105.6C606.667 95.2 605.6 78.9334 601.067 70C590.933 50.4 567.6 39.3334 547.2 44.5334Z" fill="#FF99B4"/>
<path d="M228.667 119.2C219.2 123.467 214.133 128.267 210.133 136.267C203.6 149.333 206.4 162.667 215.733 162.667C222.267 162.667 224.533 159.733 227.2 147.867C228.4 142.133 234.133 137.6 242.133 136C248 134.8 249.733 133.733 251.333 130.533C257.467 118.667 244 112 228.667 119.2Z" fill="#FF99B4"/>
<path d="M324.267 116.933C323.333 117.333 321.733 119.2 320.667 121.333C317.067 128.267 322.4 136 330.8 136C334.667 136 340.667 139.333 342.933 142.933C344.133 144.667 345.467 148.667 346 151.733C347.467 160.533 353.467 164.533 360.667 161.867C370.533 158 365.467 134.933 352.4 124.133C344.667 117.733 330.933 114.267 324.267 116.933Z" fill="#FF99B4"/>
<path d="M551.467 192.267C547.067 198.4 550.933 206.667 558 206.667C565.333 206.667 569.6 196.4 564.267 191.6C560.667 188.267 553.867 188.667 551.467 192.267Z" fill="#FF99B4"/>
<path d="M200.4 214C182.133 219.6 168.133 235.6 164 255.067C163.2 259.2 162.8 264.533 163.333 266.667C164.267 271.2 168.533 274.667 172.8 274.667C177.333 274.667 182.667 269.733 182.667 265.467C182.667 258.8 186.533 248.667 191.2 243.067C196.8 236.667 203.467 233.2 213.2 231.867C221.867 230.667 225.733 227.333 225.6 221.333C225.467 214.533 222.133 212 213.467 212.133C209.333 212.133 203.467 212.933 200.4 214Z" fill="#FF99B4"/>
<path d="M349.467 214.533C345.867 218.133 345.733 225.467 349.2 228.533C350.533 229.867 355.467 231.333 360 232C376 234.267 387.067 245.6 388.933 261.733C390.4 273.733 399.067 278.4 406.267 271.2C409.467 268 409.6 267.067 408.933 260C406.267 234.533 385.333 213.6 361.2 212.267C353.467 211.733 351.867 212.133 349.467 214.533Z" fill="#FF99B4"/>
<path d="M330 306.933C327.2 309.467 326.267 311.333 326.4 314.8C326.533 320.667 330 323.333 338.8 324.533C355.067 326.667 366.667 338.267 368.8 354.533C370 363.333 372.933 367.067 378.667 367.067C381.867 367.067 384 366.133 386.4 363.333C389.2 360 389.467 358.667 388.8 352.8C387.467 342.267 384.267 333.867 378.667 326.533C369.2 313.867 356.533 306.667 340.533 304.533C334.667 303.867 333.333 304.133 330 306.933Z" fill="#FF99B4"/>
<path d="M110.4 322.267C103.867 329.067 99.2 338.8 97.3334 349.333C94.6667 364.533 99.8667 381.733 110.4 393.067C115.733 398.667 122.533 398.933 126.533 393.867C130.267 389.2 130 386.8 125.467 380.4C118.533 370.933 116.933 366.4 116.933 358C116.933 349.6 119.6 342.133 126 333.467C130 328 130.133 325.467 126.533 320.8C122.4 315.467 116.4 316 110.4 322.267Z" fill="#FF99B4"/>
<path d="M446.933 319.6C442.4 323.467 442 328.133 445.867 333.333C458.267 350.4 458.933 362.267 448.4 377.6C445.733 381.467 443.6 386.267 443.6 388.267C443.6 393.6 447.467 397.333 453.067 397.333C461.6 397.333 471.467 383.2 474.8 366.133C477.733 351.867 472.4 333.467 462.267 322.267C457.067 316.667 451.467 315.733 446.933 319.6Z" fill="#FF99B4"/>
<path d="M186.4 350.267C182.933 354.267 182.533 358 184.533 368C189.067 389.733 205.333 405.467 227.6 409.6C237.733 411.467 242 410.4 244.667 405.333C248.8 397.333 244.4 391.6 232.933 390.133C216.933 388.133 205.867 376.8 203.333 359.467C202.8 355.867 201.2 351.867 199.867 350.533C196.667 347.333 189.067 347.2 186.4 350.267Z" fill="#FF99B4"/>
</g>
<defs>
<clipPath id="clip0_357_1245">
<rect width="682.667" height="682.667" fill="white"/>
</clipPath>
</defs>
</svg>
