<svg width="120" height="120" viewBox="0 0 120 120" fill="none" xmlns="http://www.w3.org/2000/svg">
<g clip-path="url(#clip0_198_698)">
<path d="M110.625 1.89844C105.422 3.42188 104.086 3.89062 103.664 4.35938C103.125 4.94531 103.125 4.94531 103.125 13.6875V22.4531L101.789 21.8906C101.039 21.5859 100.242 21.3281 100.008 21.3281C99.7969 21.3281 98.7891 20.5781 97.7812 19.6406C90.8203 13.1719 82.6641 8.69531 73.7109 6.44531C50.6719 0.632812 26.9766 9.79688 13.7812 29.6484C6.86719 40.0547 3.65625 53.1797 5.01562 65.6719C5.46094 69.9609 6.28125 73.7578 7.59375 77.6016L8.60156 80.5547L7.40625 81.1406C5.57812 82.0312 3.70312 83.6953 2.48437 85.4766C-0.398438 89.6953 -0.726563 94.8984 1.54687 99.6094C2.34375 101.25 3 101.977 11.625 110.625L20.8359 119.883H21.9141H22.9687L28.4531 114.398L33.9609 108.891L36.1172 109.898C41.1797 112.266 46.6875 113.93 52.1484 114.75C56.3672 115.406 64.4297 115.336 68.5547 114.656C76.0312 113.367 82.3594 111.07 88.6875 107.297C91.6875 105.516 92.3438 104.156 90.9609 102.609C89.9297 101.461 88.9688 101.555 86.5781 103.055C78.3047 108.258 68.0391 110.953 58.125 110.555C51.4453 110.25 46.2188 109.102 40.0078 106.477L37.5 105.422L39.4688 103.336C42.6797 99.9609 44.0391 96.5156 43.7578 92.4375C43.2422 85.1016 37.3359 79.5703 30 79.5938C27.3984 79.6172 25.6406 80.0391 23.4609 81.2344L21.9609 82.0547L20.4141 81.2344C18.5859 80.2734 16.8516 79.7812 14.7422 79.5703L13.1953 79.4062L12.375 77.1562C9.35156 69 8.60156 58.9688 10.3359 50.2734C12.5859 39.0234 18.6328 28.6875 27.1875 21.4922C40.8984 9.98438 59.0859 6.42188 76.0547 11.9766C81.3047 13.6875 87.75 17.25 91.9453 20.7422L93.5391 22.0781L92.5312 22.7109C91.1016 23.625 89.8359 25.125 88.9688 26.9297C88.2891 28.3594 88.2422 28.6641 88.2422 30.9375C88.2422 33.2109 88.2891 33.5156 88.9922 34.9922C91.8047 40.9219 99.5391 42.6094 104.273 38.3203C104.766 37.875 105.234 37.5 105.305 37.5C105.469 37.5 107.391 42.1172 108.023 43.9922C112.711 58.0312 110.906 73.8047 103.172 86.3672C101.555 88.9922 101.438 89.9297 102.633 90.9844C103.312 91.5938 103.57 91.6641 104.344 91.5703C104.836 91.5 105.422 91.3125 105.609 91.1484C106.148 90.7031 109.078 85.6875 110.062 83.5312C112.312 78.6562 113.953 73.1484 114.75 67.8516C115.336 64.0078 115.359 56.0625 114.773 52.2656C113.836 46.1719 111.984 40.3125 109.312 35.0156L107.812 32.0391V19.8281V7.61719L112.688 6.23438C115.359 5.46094 117.938 4.6875 118.43 4.5C119.344 4.14844 120 3.25781 120 2.34375C120 1.10156 118.828 -0.0234375 117.586 0.0234375C117.305 0.0234375 114.164 0.867188 110.625 1.89844ZM99.9609 26.2266C102.234 27.2578 103.43 29.6484 102.891 32.0625C102.328 34.5703 99.7031 36.375 97.1953 36C92.8594 35.3438 91.2891 29.7188 94.6406 26.9531C96.1172 25.7344 98.2734 25.4531 99.9609 26.2266ZM16.7812 84.75C17.4609 84.9609 18.5156 85.5469 19.125 86.0391C21.4453 87.8906 22.3594 87.9609 24.0469 86.4844C28.5703 82.5234 35.5547 84 38.25 89.4844C38.9531 90.9141 39.0234 91.2188 39.0234 93.2812C39.0234 95.3203 38.9531 95.6484 38.25 97.1484C37.5469 98.6484 36.7969 99.4688 29.6953 106.594L21.9141 114.398L14.1328 106.594C7.00781 99.4453 6.28125 98.6484 5.57812 97.1484C4.875 95.6719 4.80469 95.2969 4.80469 93.3984C4.82812 90.6797 5.41406 89.0859 7.14844 87.2344C9.72656 84.4453 13.1484 83.5781 16.7812 84.75Z" fill="#FF99B4"/>
<path d="M56.1328 38.2968C51.6094 39.164 48.0938 40.9922 44.7891 44.1562C41.7656 47.0859 39.75 50.4843 38.625 54.6093C37.8516 57.4687 37.8516 62.5312 38.625 65.3906C40.7812 73.3125 46.6875 79.2187 54.6094 81.3515C57.4688 82.125 62.5312 82.125 65.3672 81.375C71.7891 79.6406 76.9453 75.3984 79.8281 69.4922C81.375 66.3047 81.8906 63.8672 81.8906 59.8828C81.8906 55.9687 81.3984 53.789 79.8047 50.5078C76.9453 44.6015 71.7188 40.3125 65.3906 38.6718C62.8828 38.0156 58.5 37.8281 56.1328 38.2968ZM64.8047 43.3593C67.8281 44.2968 70.0078 45.6093 72.1875 47.8125C74.4141 50.0156 75.7031 52.2187 76.6641 55.3125C77.4609 57.8437 77.4609 62.1562 76.6641 64.6875C74.8125 70.664 70.6875 74.789 64.6875 76.664C62.1562 77.4609 57.8203 77.4609 55.3125 76.664C50.2734 75.0937 46.6875 72.0937 44.5312 67.6172C42.0234 62.4609 42.0234 57.539 44.5312 52.3828C45.7734 49.8047 47.4844 47.7187 49.6406 46.125C51.3516 44.8593 54.3516 43.4765 56.3672 43.0312C58.6406 42.5156 62.6016 42.6797 64.8047 43.3593Z" fill="#FF99B4"/>
<path d="M57.3281 49.5938C53.6719 50.4844 50.5547 53.5781 49.5703 57.3047C47.6485 64.6875 54.0703 71.7891 61.6172 70.6172C63.9141 70.2656 65.625 69.3985 67.3594 67.7344C71.8828 63.3985 71.8828 56.6016 67.3594 52.2656C64.5703 49.5938 61.125 48.6797 57.3281 49.5938ZM62.6953 54.5625C63.7969 55.125 64.9219 56.2735 65.5313 57.4219C65.836 58.0078 65.9766 58.7344 65.9766 60C65.9766 61.9453 65.625 62.836 64.3594 64.1719C63.1172 65.5078 61.9922 65.9766 60 65.9766C58.0078 65.9766 56.8828 65.5078 55.6406 64.1719C54.375 62.836 54.0235 61.9453 54.0235 60C54.0235 58.0547 54.375 57.1641 55.6406 55.8281C56.3672 55.0313 57.2813 54.4688 58.3594 54.1172C59.3203 53.7891 61.6875 54.0469 62.6953 54.5625Z" fill="#FF99B4"/>
<path d="M89.2968 58.289C88.5234 58.9922 88.5234 59.0156 88.3359 61.7109C87.3515 76.2187 76.2187 87.3515 61.7109 88.3359C59.0156 88.5234 58.9922 88.5234 58.289 89.2969C57.7031 89.9531 57.6093 90.1875 57.7265 91.0312C57.8203 91.6875 58.0781 92.1797 58.5234 92.5547C59.1328 93.0937 59.25 93.1172 61.9922 92.9765C70.0312 92.6015 77.3906 89.2969 83.3437 83.3437C89.2968 77.3906 92.5781 70.1015 92.9765 61.9922C93.1172 59.25 93.0937 59.1328 92.5547 58.5234C92.1797 58.0781 91.6875 57.8203 91.0312 57.7265C90.1875 57.6094 89.9531 57.7031 89.2968 58.289Z" fill="#FF99B4"/>
<path d="M100.852 57.8906C99.9141 58.2656 99.6797 59.0391 99.3984 62.5781C98.9531 68.2266 97.8516 72.375 95.5078 77.2266C91.7812 84.9375 85.7812 91.0781 78.0234 95.1328C73.3594 97.5703 68.4141 98.9297 62.4844 99.4219C58.4531 99.75 57.9609 99.9844 57.7266 101.602C57.5859 102.68 58.2187 103.687 59.25 104.086C60.1172 104.414 65.8359 103.922 69 103.266C86.8828 99.4687 100.594 85.2187 103.57 67.2656C103.828 65.6484 104.086 63.1406 104.109 61.6875L104.18 59.0391L103.406 58.3359C102.633 57.6328 101.836 57.4922 100.852 57.8906Z" fill="#FF99B4"/>
<path d="M95.836 95.8359C94.7344 96.9375 94.9922 98.6719 96.375 99.4687C98.2735 100.594 100.453 98.5078 99.4922 96.4922C98.7891 95.0156 96.9844 94.6875 95.836 95.8359Z" fill="#FF99B4"/>
</g>
<defs>
<clipPath id="clip0_198_698">
<rect width="120" height="120" fill="white"/>
</clipPath>
</defs>
</svg>
