<svg width="120" height="120" viewBox="0 0 120 120" fill="none" xmlns="http://www.w3.org/2000/svg">
<g clip-path="url(#clip0_198_724)">
<path d="M21.3047 0.328125C17.9531 1.21875 15.4688 4.14844 15 7.80469C14.6953 10.0547 14.6953 102.914 15 105.164C15.3516 107.93 16.7109 110.109 18.9375 111.516C21.3047 113.039 20.0859 112.969 47.3906 112.969H72.1875V115.898C72.1875 118.711 72.2109 118.875 72.7734 119.414C73.0781 119.742 73.5703 120 73.8516 120C74.1328 120 75.6797 119.32 77.2734 118.477L80.2031 116.953L83.0625 118.477C84.6563 119.32 86.1797 120 86.4609 120C86.7422 120 87.2344 119.742 87.5391 119.414C88.1016 118.875 88.125 118.711 88.125 115.898V112.969H95.9531C103.5 112.969 103.781 112.945 104.391 112.477C104.836 112.125 105 111.773 105 111.188C105 110.016 104.32 109.453 102.891 109.453H101.719V104.18V98.9062H102.797C104.203 98.9062 104.695 98.6016 105 97.5469C105.305 96.3984 105.328 2.55469 105 1.42969C104.602 0 104.648 0.0234375 96.8906 0C90.3281 0 89.7891 0.0234375 89.2734 0.445312C88.5234 1.05469 88.5234 2.46094 89.2734 3.07031C89.7656 3.46875 90.3047 3.51562 95.6484 3.51562H101.484V49.4531V95.3906L71.0391 95.4375C41.4844 95.5078 40.5703 95.5312 40.1016 95.9531C39.7734 96.2578 39.6094 96.6797 39.6094 97.2891C39.6094 99 38.7422 98.9062 56.4141 98.9062H72.1875V104.18V109.453H47.3672H22.5469L21.3047 108.797C20.5078 108.398 19.7813 107.766 19.3359 107.133C18.7031 106.219 18.6328 105.961 18.6328 104.203C18.6328 102.539 18.7031 102.164 19.2188 101.414C19.9219 100.383 21.1406 99.5156 22.4063 99.1641C22.9453 99.0234 25.5 98.9062 28.5 98.9062C33.1172 98.9062 33.75 98.8594 34.1953 98.4844C34.8984 97.9219 34.9219 96.7031 34.2422 96.0234C33.7969 95.5547 33.4453 95.5078 30.7031 95.4375L27.6563 95.3438V49.4297V3.51562H55.1719C70.3125 3.51562 82.875 3.44531 83.0859 3.375C84.1406 2.95312 84.2109 0.773438 83.2031 0.234375C82.5234 -0.140625 22.6875 -0.046875 21.3047 0.328125ZM24.1406 49.4062V95.2969L22.5 95.5781C21.5859 95.7422 20.3203 96.1172 19.6875 96.4453L18.5156 97.0312L18.5625 51.9375L18.6328 6.84375L19.3359 5.8125C20.1563 4.66406 22.125 3.51562 23.3672 3.51562H24.1406V49.4062ZM84.6094 107.109V115.336L82.5703 114.258C81.4453 113.672 80.3906 113.203 80.2266 113.203C80.0625 113.203 78.9609 113.672 77.8125 114.258L75.7031 115.312V107.109V98.9062H80.1563H84.6094V107.109ZM97.9688 104.18V109.453H93.0469H88.125V104.18V98.9062H93.0469H97.9688V104.18Z" fill="#88D6E3"/>
<path d="M47.4609 20.9531C42.1641 22.6172 39.1641 28.1484 40.7578 33.2578C41.25 34.8516 42.1406 36.4687 42.8672 37.125C43.3359 37.5703 43.3594 37.7578 43.3594 44.4609C43.3594 49.9922 43.4297 51.5156 43.7109 52.1719C44.0391 52.9453 44.0156 53.0391 43.5703 53.6484C42.0937 55.6641 42.8437 59.3672 45.1406 61.3828C47.0391 63.0469 47.0156 63.0469 59.3203 63.0469H70.2891L70.7578 62.4375C71.6016 61.3594 71.2734 60.2578 69.9844 59.7656C69.5859 59.625 65.5781 59.5312 58.9922 59.5312C49.1484 59.5312 48.5859 59.5078 47.8828 59.0625C46.7578 58.3828 45.9609 56.6016 46.4297 55.7578C46.6406 55.3359 47.2969 55.3125 64.5937 55.3125H82.5L82.7578 55.875C82.9687 56.3203 82.9219 56.6484 82.5469 57.4922C81.8906 58.9687 81.1641 59.3672 78.8203 59.5547C76.5 59.7422 75.9375 60.0937 75.9375 61.4062C75.9375 62.7656 76.4297 63.0469 78.7969 63.0469C81.1641 63.0469 82.5469 62.625 83.8828 61.5C86.3437 59.3672 87.1406 55.6406 85.5469 53.6016C85.125 53.0625 85.1016 52.9687 85.4297 52.1719C85.7109 51.4922 85.7812 50.0156 85.7812 44.4141V37.4766L86.6016 36.3984C88.3125 34.1484 88.9687 30.8906 88.2656 28.125C87.7734 26.2266 86.9531 24.8203 85.5 23.3672C82.1953 20.0625 76.4297 19.6875 72.6797 22.5234L71.4609 23.4609L70.5937 22.7109C70.125 22.2891 69.1641 21.6797 68.4609 21.3516C67.2891 20.8125 66.8672 20.7422 64.4531 20.7422C62.0391 20.7422 61.6172 20.8125 60.4687 21.3516C59.7656 21.7031 58.7578 22.2891 58.2656 22.7109C57.3516 23.4375 57.3281 23.4375 56.8594 22.9922C55.9687 22.1953 54.4687 21.375 53.2031 21C51.7266 20.5547 48.7734 20.5312 47.4609 20.9531ZM53.5781 24.9609C54.2109 25.3594 55.0312 26.1094 55.4297 26.6484C56.2031 27.7031 57.1406 28.2422 57.8203 28.0312C58.0781 27.9609 58.7812 27.3047 59.4141 26.5781C60.8906 24.8672 62.3672 24.1406 64.4531 24.1406C66.5391 24.1406 67.9453 24.8437 69.6328 26.6953C70.5 27.6562 71.1094 28.125 71.4844 28.125C71.8359 28.125 72.5156 27.6094 73.4531 26.6016C75.2578 24.7266 76.4531 24.1641 78.5859 24.1406C81.1641 24.1406 83.0391 25.2187 84.2812 27.4687C84.8672 28.5469 84.9609 28.9453 84.9609 30.4687C84.9609 32.4141 84.5156 33.4922 83.1328 35.0625L82.3828 35.9297L82.2656 43.5C82.1719 49.2656 82.0781 51.1406 81.8437 51.375C81.6328 51.5859 80.6484 51.7031 78.8672 51.75L76.1719 51.8437V46.7109C76.1484 41.25 76.1016 41.0156 74.9766 40.5703C74.2734 40.3125 73.0312 40.7578 72.7969 41.3672C72.7266 41.5781 72.6562 44.0156 72.6562 46.7812V51.8203L69.4453 51.75L66.2109 51.6797L66.1406 46.5C66.0937 41.7656 66.0469 41.2734 65.6484 40.9219C65.0156 40.3359 63.8203 40.3828 63.2109 40.9922C62.7187 41.4844 62.6953 41.7187 62.625 46.6406L62.5547 51.7969H59.3906H56.25V46.6875C56.2266 41.25 56.1797 41.0156 55.0547 40.5703C54.3516 40.3125 53.1094 40.7578 52.875 41.3672C52.8047 41.5781 52.7344 44.0156 52.7344 46.8047V51.8437L50.1328 51.75C47.8828 51.6797 47.4844 51.6094 47.2031 51.2344C46.9453 50.8594 46.875 49.4062 46.875 43.5703V36.3516L45.7031 35.0156C42.6797 31.5703 43.5 26.6953 47.4141 24.7266C48.4922 24.1875 48.8672 24.1172 50.5312 24.1875C52.1484 24.2578 52.5703 24.3516 53.5781 24.9609Z" fill="#88D6E3"/>
<path d="M53.9063 72.2344C53.1094 73.1016 53.3203 74.3438 54.3984 74.8828C55.3828 75.3984 73.7578 75.3984 74.7422 74.8828C75.8203 74.3438 76.0547 73.0078 75.2344 72.1875C74.7891 71.7422 74.4609 71.7188 64.5703 71.7188C54.3984 71.7188 54.3984 71.7188 53.9063 72.2344Z" fill="#88D6E3"/>
<path d="M58.5937 79.2656C57.6797 80.25 58.2187 81.8203 59.6016 82.1484C59.9062 82.2422 62.3906 82.2656 65.1328 82.2188C70.0547 82.1484 70.125 82.1484 70.5703 81.5859C71.1562 80.8828 71.1328 79.8047 70.5469 79.2188C70.1016 78.7734 69.7734 78.75 64.5703 78.75C59.2266 78.75 59.0625 78.7734 58.5937 79.2656Z" fill="#88D6E3"/>
</g>
<defs>
<clipPath id="clip0_198_724">
<rect width="120" height="120" fill="white"/>
</clipPath>
</defs>
</svg>
